# xmcd
#
# Track frame offsets:
#  150
#  19968
#  33310
#  55280
#  66968
#  79063
#  95863
#  108615
#  122148
#  132810
#  144140
#
# Disc length: 2175 seconds
#
# Revision: 1
# Processed by: cddbd v1.5.1PL2 Copyright (c) Steve Scherf et al.
# Submitted via: Collectorz.com_Music_Collector 6.11
#
DISCID=9a087d0b
DTITLE=Tom Ball and Kenny Sultan - Bloodshot Eyes
DYEAR=1992
DGENRE=Blues
TTITLE0=Too Many Drivers
TTITLE1=Bloodshot Eyes
TTITLE2=Long Distance Call
TTITLE3=C- Rag Medley
TTITLE4=Street Walking Woman
TTITLE5=Your Red Wagon
TTITLE6=Indiscretion Stomp
TTITLE7=Don't Burn The Candle At Both Ends
TTITLE8=Maria Elena
TTITLE9=That'll Never Happen No More
TTITLE10=Fool About A Cigarette
EXTD=
EXTT0=
EXTT1=
EXTT2=
EXTT3=
EXTT4=
EXTT5=
EXTT6=
EXTT7=
EXTT8=
EXTT9=
EXTT10=
PLAYORDER=
